<svg version="1.1" id="Layer_1" xmlns="http://www.w3.org/2000/svg" x="0" y="0" viewBox="0 0 461.1 663.4" xml:space="preserve"><style>.st0{fill:#dfbb25}.st1{fill:#134d8b}</style><path class="st0" d="M206.7 264h100.2c.6 0 1.3.2 1.7.7l56.1 50.9-15.7-47.9c-.1-.3-.1-.5-.1-.8 0-1.4 1.1-2.9 2.6-2.9h17.8V156.4H206.7z"/><path class="st0" d="M366.6 322.3c-.6 0-1.2-.2-1.7-.6L304.6 267h-98.1c-1.4 0-2.5-1.1-2.5-2.5V155.8c0-1.4 1.1-2.5 2.5-2.5h161.6c1.4 0 2.5 1.1 2.5 2.5v108.7c0 1.4-1.1 2.5-2.5 2.5h-16.4l16.9 51.5c.3.4.4.9.4 1.4.2 1.3-.9 2.4-2.4 2.4.1 0 0 0 0 0M209 262h96.6c.6 0 1.2.2 1.7.6l54.1 49.1-15.1-46.2c-.1-.3-.1-.5-.1-.8 0-1.4 1.1-2.8 2.5-2.8h17.2V158.2H209z"/><path class="st1" d="M261 243.5c-.4 0-.8-.1-1.1-.3l-89.3-45.5-75.1 21.9c-1 .3-2.2-.1-2.8-1s-.5-2.1.2-3l34.9-39.6-15.1-7.7c-1.1-.6-1.7-1.9-1.2-3.1l40.1-99c.3-.6.8-1.1 1.4-1.4.6-.2 1.4-.2 2 .1l147.2 74.9c1.1.6 1.7 1.9 1.2 3.1l-40.1 99c-.3.6-.8 1.1-1.4 1.4-.3.1-.6.2-.9.2m-90.1-50.9c.4 0 .8.1 1.1.3l87.8 44.7 38.2-94.4-142.7-72.7-38.3 94.4 15.9 8.1c1.1.6 1.7 1.9 1.2 3.1-.1.3-.4.8-.6 1l-31.1 35.4 67.8-19.8c.2 0 .4-.1.7-.1"/><path class="st1" d="M169.6 194.2q.6 0 1.2.3l91.1 46.4 39.7-97.9-148.2-75.5-39.7 97.9 16.4 8.4c1.2.6 1.7 2 1.2 3.2-.1.3-.4.8-.6 1l-32.3 36.7 70.4-20.5zM17.4 479.3h428.2v19.9H17.4z"/><path class="st1" d="M17.4 7.3v143.6h19.7V27l388.8.1v123.8h19.7V7.3zm37.1 431.5-16.9-28-9.8 11.3v16.7H17.4v-60.2H28v29.2l.2.1 10.1-12.4 14.2-16.9H65l-20.3 24.1L67 438.9H54.5zM239.2 388v50.9h-10.5V388H212v-9.3h44v9.3zm184.1 50.8c-13.6 0-22.2-9.4-22.2-22v-38.1h10.3V416c0 7.3 4.5 13.1 12 13.1 7 0 11.8-4.5 11.8-12.7v-37.7h10.5v38.5c-.1 13.1-9.5 21.6-22.4 21.6M31.1 583.1c-4.6 0-9.3-1-13.6-4.8l3.9-5.2c3 2.7 6.3 3.8 10.1 3.8 3 0 5.4-1.3 5.4-3.6 0-2.2-1.7-3.2-5.6-3.6-5.6-.6-11.9-1.7-11.9-9 0-6.4 5.4-9.9 11.7-9.9 4.7 0 8.6 1 12 3.6l-3.4 5.5c-3-2-5.9-2.7-8.5-2.7-3.3 0-5.1 1.5-5.1 3.4 0 2.1 2.3 2.9 7.5 3.4 5.1.6 10.2 2.5 10.2 9.1.1 6.3-5.7 10-12.7 10m58-.3c-4.6 0-8-2.9-8-7.9V557h-3.6v-5.9h3.7V543h7v8.2H93v5.9h-4.7v15.8c0 2.2.8 3.6 2.9 3.6h2.3v6.3zm45-31.5V570c0 4.3 1.6 6.4 5.8 6.4 3.4 0 6-2.4 6-6.4v-18.8h7.1v31.5h-7.1v-3.1h-.2c-1.9 2.4-5.2 3.5-8 3.5-6.5 0-10.8-3.6-10.8-11.2v-20.7h7.2zm71.6 31.5v-2.9l-.1-.1c-2.2 2.4-5.2 3.4-7.8 3.4-9.9 0-11.1-8.6-11.1-16.3 0-7.2 2.3-15.9 11.9-15.9 2.7 0 5.5 1 7.1 3.1l.1-.1v-17.3h7.1v46.2h-7.2zm-5.7-25.1c-5.5 0-6 5.4-6 9.7 0 3.9.6 8.9 5.9 8.9s5.9-5.5 5.9-9.4c-.1-3.9-.6-9.2-5.8-9.2m53.9 11.4c0 3.9 2 7.6 6.6 7.6 1.8 0 5.1-.8 7.4-3 1.5 1.7 2.7 3.3 4.2 5-3.5 3.2-7.9 4.5-11.8 4.5-6.6 0-13.8-3.2-13.8-16 0-12.2 7.2-16.2 13.7-16.2 8.4 0 13.5 5.9 13.5 15.1v3.1h-19.8zm.1-5.1h12c-.3-4.3-2.7-6.6-5.9-6.6-3.3 0-5.7 2.4-6.1 6.6m72.1 18.8V564c0-4-1.8-6.4-5.8-6.4-3.4 0-6 2.4-6 6.4v18.7h-7.1v-31.6h7.1v3.3h.1c2-2.3 5.3-3.6 8.2-3.6 6.4 0 10.6 3.8 10.6 11.1v20.7h-7.1zm52.4 0c-4.6 0-8-2.9-8-7.9V557h-3.6v-5.9h3.7V543h7v8.2h4.8v5.9h-4.7v15.8c0 2.2.8 3.6 2.9 3.6h2.3v6.3zm56.8 0v-3.1h-.2c-1.9 2.4-5.2 3.5-8 3.5-6.5 0-10.8-3.6-10.8-11.2v-20.7h7.1V570c0 4.3 1.6 6.4 5.8 6.4 3.4 0 6-2.4 6-6.4v-18.8h7.1v31.5H440c-1.6 2.3-2.3 3.8-2.3 5.2 0 1.5.9 2.2 2.5 2.2.9 0 2.1-.2 3.9-.9l1.5 3.8c-1.7 1-4 1.7-6.1 1.7-4 0-6.7-2.7-6.7-5.9 0-1.7.6-3.4 2.5-6M44 629.3v21.4h-7.2v-2.8l-.1-.1c-1.7 2.2-5 3.2-8.2 3.2-6.7 0-10.9-3.4-10.9-9.5 0-5.1 3.7-9.5 10.7-9.5h8.6v-2.3c0-2.4-1.3-4.5-6.3-4.5-3.5 0-5.7.9-7.5 2.6l-3.8-4.8c3.1-3.1 7.3-4.1 11.7-4.1 7 0 13 2.3 13 10.4m-14.1 15.6c3.3 0 6.4-1 6.8-4.4.1-.5.1-1 .1-3h-7.3c-3.6 0-5.1 1.5-5.1 3.5-.1 1.9 1.3 3.9 5.5 3.9m52.8 5.8c-4.7 0-8.1-2.9-8.1-7.9V625H71v-5.9h3.7v-8.2h7v8.2h4.8v5.9h-4.8v15.8c0 2.2.8 3.6 2.9 3.6H87v6.3zm42.8.4c-4.7 0-9.4-1-13.7-4.8l3.9-5.2c3 2.7 6.4 3.8 10.1 3.8 3.1 0 5.5-1.3 5.5-3.6 0-2.2-1.7-3.2-5.6-3.6-5.6-.6-12-1.7-12-9 0-6.4 5.4-9.9 11.8-9.9 4.8 0 8.7 1 12.1 3.6l-3.4 5.5c-3-2-6-2.7-8.6-2.7-3.4 0-5.1 1.5-5.1 3.4 0 2.1 2.3 2.9 7.5 3.4 5.2.6 10.3 2.5 10.3 9.1.1 6.3-5.7 10-12.8 10m50.4-.4c-4.7 0-8.1-2.9-8.1-7.9V625h-3.6v-5.9h3.7v-8.2h7v8.2h4.8v5.9h-4.8v15.8c0 2.2.8 3.6 2.9 3.6h2.4v6.3zm55.8-26.6c1.6 2.5 2.4 6.1 2.3 10.4 0 4.8-.7 8.1-2.2 10.7-2.4 3.9-6.9 6-11.9 6-4.7 0-8.6-1.6-10.9-5-1.8-2.7-2.6-6.4-2.5-11.2 0-3.4.4-6.6 1.6-8.9 2.2-4.6 6.8-7.3 12.6-7.3 4.8 0 8.7 1.9 11 5.3m-16.8 4.8c-.8 1.7-1 3.8-1.1 6.2 0 2.5.2 4.5 1 6 1 2.2 2.9 3.5 5.4 3.5 2.7 0 5-1.5 5.9-4.5.4-1.2.6-2.9.6-5.6 0-2.4-.3-4.3-.8-5.5-1-2.5-3-3.6-5.4-3.6-2.4-.1-4.5 1.3-5.6 3.5m57.8 11.9 2.7-8.8 4.3-12.9h7.8l-12.1 31.5h-5.8l-12.1-31.5h7.8c1.4 4.1 2.8 8.6 4.2 12.9 1 2.9 2 5.9 3 8.8zm53 16.3c-1.8 4.8-5.4 6.4-9.2 6.4h-2.7v-6h2c1.8 0 3.2-1.5 3.8-3.3l1.6-5-11.6-29.9h7.8l4.1 11.6 3.1 9.9h.3l3.1-9.8 4-11.7h7.6zm54.4-6.1c-2.7 0-5.8-.8-7.8-3.4l-.1.1v3H365v-46.3h7.2v17.8l.1.1c2.1-2.3 5.2-3.4 7.8-3.4 9.5 0 11.3 8.4 11.4 15.5 0 7.4-1.5 16.6-11.4 16.6m-1.9-25.3c-5.3 0-5.9 5.3-5.9 9.2 0 3.8.5 9.5 5.9 9.5 5.5 0 5.9-5.5 5.9-9.5 0-4.2-.5-9.2-5.9-9.2m47.5 11.3c0 3.9 2 7.6 6.7 7.6 1.9 0 5.1-.8 7.5-3 1.5 1.7 2.7 3.3 4.2 5-3.5 3.2-8 4.5-11.9 4.5-6.7 0-13.9-3.2-13.9-16 0-12.2 7.3-16.2 13.8-16.2 8.5 0 13.6 5.9 13.6 15.1v3.1h-20zm.2-5.1H438c-.3-4.3-2.7-6.6-6-6.6-3.3.1-5.8 2.5-6.1 6.6m2.8-18.3v-6.9h7.5v6.9z"/></svg>