<svg version="1.1" id="Layer_1" xmlns="http://www.w3.org/2000/svg" x="0" y="0" viewBox="0 0 662.1 1000" xml:space="preserve"><style>.st0{stroke:#fff;stroke-width:2;stroke-miterlimit:10;fill:#fff}</style><path class="st0" d="M534.3 480.7c-.9 0-1.8-.3-2.5-1l-89.6-81.3H296.6c-2 0-3.7-1.6-3.7-3.7V233.3c0-2 1.6-3.7 3.7-3.7h240c2 0 3.7 1.6 3.7 3.7v161.4c0 2-1.6 3.7-3.7 3.7h-24.3l25.1 76.5q.6.9.6 2.1c0 2-1.6 3.7-3.7 3.7q.15 0 0 0zm-234-89.6h143.4c.9 0 1.8.3 2.5 1l80.3 72.9-22.5-68.6c-.1-.4-.2-.8-.2-1.1 0-2 1.6-4.1 3.7-4.1H533V237H300.3z"/><path class="st0" d="M377.6 363.6c-.6 0-1.1-.1-1.7-.4l-132.6-67.5-111.4 32.5c-1.6.4-3.2-.2-4.1-1.6s-.7-3.2.3-4.4l51.8-58.8-22.5-11.5c-1.7-.9-2.5-2.9-1.7-4.6l59.5-147c.4-1 1.2-1.7 2.1-2.1 1-.4 2-.3 2.9.2l218.5 111.2c1.7.9 2.5 2.9 1.7 4.6l-59.5 147c-.4 1-1.2 1.7-2.1 2.1q-.6.3-1.2.3zm-133.9-75.5c.6 0 1.1.1 1.7.4l130.3 66.4 56.8-140.2-212-107.9L163.7 247l23.5 12c1.7.9 2.5 2.9 1.7 4.6-.2.4-.5 1.2-.8 1.5L142 317.6l100.7-29.4c.3-.1.6-.1 1-.1z"/><path d="M15.8 713.7h635.8v29.5H15.8zm0-700.8v213.2h29.3V42.2h577.3v183.9h29.3V12.9zm55.1 640.8-25-41.7-14.5 16.8v24.8H15.8v-89.4h15.7v43.3l.3.1 15-18.4 21.1-25h18.5L56.2 600l33.1 53.7zm274.2-75.6v75.5h-15.5v-75.5h-24.8v-13.9h65.3v13.9zm273.5 75.4c-20.1 0-33-14-33-32.7v-56.6h15.3v55.4c0 10.8 6.8 19.5 17.8 19.5 10.4 0 17.4-6.6 17.4-18.9v-56h15.5v57.2c.1 19.5-13.9 32.1-33 32.1M36.2 867.9c-6.9 0-13.8-1.4-20.2-7.1l5.7-7.7c4.4 4.1 9.4 5.6 14.9 5.6 4.5 0 8.1-2 8.1-5.4 0-3.2-2.5-4.7-8.3-5.3-8.3-.9-17.7-2.5-17.7-13.3 0-9.5 8-14.6 17.4-14.6 7 0 12.8 1.4 17.8 5.3l-5.1 8.1c-4.4-2.9-8.8-4.1-12.6-4.1-5 0-7.5 2.3-7.5 5 0 3.1 3.4 4.2 11.1 5.1 7.6.9 15.2 3.7 15.2 13.5.1 9.4-8.4 14.9-18.8 14.9m86.1-.6c-6.9 0-11.9-4.2-11.9-11.7v-26.5H105v-8.7h5.4v-12.2h10.3v12.2h7.1v8.7h-7v23.5c0 3.3 1.1 5.3 4.3 5.3h3.5v9.4zm66.7-46.7v27.9c0 6.4 2.4 9.5 8.6 9.5 5 0 8.9-3.6 8.9-9.5v-27.9h10.6v46.8h-10.6v-4.6h-.3c-2.8 3.5-7.7 5.2-11.8 5.2-9.7 0-16-5.3-16-16.6v-30.7H189zm106.5 46.7V863l-.2-.2c-3.2 3.6-7.7 5-11.7 5-14.7 0-16.5-12.8-16.5-24.2 0-10.7 3.4-23.6 17.7-23.6 4 0 8.2 1.5 10.5 4.5l.2-.1v-25.7h10.6v68.6zm-8.6-37.1c-8.2 0-8.9 8-8.9 14.4 0 5.9.8 13.2 8.7 13.2s8.7-8.2 8.7-13.9c.1-5.9-.7-13.7-8.5-13.7m80 16.8c0 5.9 3 11.2 9.9 11.2 2.7 0 7.5-1.2 11-4.4 2.3 2.6 3.9 4.9 6.2 7.5-5.2 4.8-11.7 6.6-17.6 6.6-9.9 0-20.5-4.7-20.5-23.8 0-18.1 10.7-24.1 20.3-24.1 12.5 0 20 8.8 20 22.4v4.6zm.2-7.5H385c-.4-6.3-4-9.7-8.8-9.7-5-.1-8.5 3.5-9.1 9.7m107.1 27.8v-27.8c0-6-2.6-9.5-8.5-9.5-5.1 0-8.9 3.5-8.9 9.5v27.8h-10.6v-46.9h10.6v4.9h.2c3-3.4 7.9-5.3 12.1-5.3 9.5 0 15.8 5.6 15.8 16.5v30.7h-10.7zm77.7 0c-6.9 0-11.9-4.2-11.9-11.7v-26.5h-5.4v-8.7h5.4v-12.2h10.3v12.2h7.1v8.7h-7v23.5c0 3.3 1.1 5.3 4.3 5.3h3.5v9.4zm84.4 0v-4.6h-.3c-2.8 3.5-7.7 5.2-11.8 5.2-9.7 0-16-5.3-16-16.6v-30.7h10.5v27.9c0 6.4 2.4 9.5 8.6 9.5 5 0 8.9-3.6 8.9-9.5v-27.9h10.6v46.8h-3.5c-2.4 3.4-3.4 5.7-3.4 7.7 0 2.3 1.3 3.3 3.8 3.3 1.3 0 3.2-.3 5.7-1.3l2.2 5.7c-2.5 1.5-5.9 2.6-9.1 2.6-5.9 0-10-4-10-8.8.1-2.7 1-5.4 3.8-9.3m-581 69.2v31.8H44.6v-4.2s-.1-.1-.2-.1c-2.5 3.3-7.5 4.7-12.2 4.7-9.9 0-16.2-5-16.2-14.1 0-7.6 5.5-14.1 15.9-14.1h12.7v-3.4c0-3.6-2-6.7-9.3-6.7-5.1 0-8.5 1.3-11.2 3.9l-5.7-7.2c4.5-4.5 10.9-6.1 17.4-6.1 10.6 0 19.5 3.4 19.5 15.5m-20.9 23.1c4.8 0 9.5-1.5 10-6.5.1-.8.1-1.5.1-4.4H33.7c-5.4 0-7.6 2.3-7.6 5.2 0 2.8 2.1 5.7 8.3 5.7m78.4 8.6c-6.9 0-12-4.2-12-11.7V930h-5.4v-8.7h5.5v-12.2h10.4v12.2h7.2v8.7h-7.1v23.5c0 3.3 1.1 5.3 4.4 5.3h3.5v9.4zm63.5.6c-6.9 0-13.9-1.4-20.4-7.1l5.8-7.7c4.5 4.1 9.5 5.6 15.1 5.6 4.5 0 8.1-2 8.1-5.4 0-3.2-2.6-4.7-8.3-5.3-8.3-.9-17.8-2.5-17.8-13.3 0-9.5 8.1-14.6 17.5-14.6 7.1 0 12.9 1.4 18 5.3l-5.1 8.1c-4.5-2.9-8.9-4.1-12.7-4.1-5 0-7.6 2.3-7.6 5 0 3.1 3.4 4.2 11.2 5.1 7.7.9 15.3 3.7 15.3 13.5 0 9.4-8.6 14.9-19.1 14.9m74.8-.6c-6.9 0-12-4.2-12-11.7V930h-5.4v-8.7h5.5v-12.2h10.4v12.2h7.2v8.7h-7.1v23.5c0 3.3 1.1 5.3 4.4 5.3h3.5v9.4zm83-39.5c2.4 3.7 3.5 9.1 3.4 15.4 0 7.1-1 12.1-3.2 15.9-3.6 5.9-10.2 8.9-17.6 8.9-7 0-12.8-2.4-16.2-7.4-2.7-4-3.8-9.5-3.7-16.6 0-5 .7-9.7 2.4-13.2 3.2-6.9 10.1-10.8 18.7-10.8 6.9 0 12.7 2.8 16.2 7.8m-25 7.1c-1.1 2.5-1.5 5.6-1.6 9.2 0 3.7.3 6.7 1.4 9 1.4 3.2 4.3 5.2 8 5.2 4.1 0 7.4-2.2 8.8-6.7.6-1.8.9-4.3.9-8.3 0-3.5-.4-6.3-1.2-8.2-1.4-3.7-4.5-5.4-8-5.4-3.6-.1-6.8 1.9-8.3 5.2m85.8 17.8 4.1-13 6.4-19.1H417l-18 46.7h-8.6l-18-46.8H384c2.1 6.1 4.2 12.8 6.3 19.1 1.5 4.3 3 8.7 4.5 13h.1zm78.6 24.1c-2.7 7.2-8 9.5-13.6 9.5h-4v-9h2.9c2.7 0 4.7-2.3 5.7-4.9l2.4-7.4-17.2-44.4h11.6l6.1 17.2 4.6 14.7h.4l4.6-14.6 6-17.4h11.3zm80.9-9c-4 0-8.6-1.2-11.6-5l-.2.1v4.4h-10.7v-68.7h10.7v26.4l.2.1c3.1-3.4 7.7-5 11.6-5 14.1 0 16.8 12.5 16.9 23 0 11-2.3 24.7-16.9 24.7m-2.9-37.6c-7.9 0-8.8 7.8-8.8 13.7 0 5.7.8 14.2 8.8 14.2 8.1 0 8.8-8.1 8.8-14.2 0-6.2-.8-13.7-8.8-13.7m70.6 16.8c0 5.9 3 11.2 9.9 11.2 2.8 0 7.6-1.2 11.1-4.4 2.3 2.6 4 4.9 6.3 7.5-5.2 4.8-11.8 6.6-17.7 6.6-10 0-20.7-4.7-20.7-23.8 0-18.1 10.8-24.1 20.5-24.1 12.6 0 20.2 8.8 20.2 22.4v4.6zm.2-7.5h18c-.4-6.3-4.1-9.7-8.9-9.7-4.9-.1-8.5 3.5-9.1 9.7m4.2-27.3v-10.3h11.1v10.3z" style="fill:#fff"/></svg>