<svg xmlns="http://www.w3.org/2000/svg" width="139" height="139" viewBox="0 0 139 139" fill="none">
<path fill-rule="evenodd" clip-rule="evenodd" d="M132.858 45.0777C140.668 37.2672 140.668 24.6039 132.858 16.7934L122.392 6.32768C114.582 -1.48281 101.918 -1.4828 94.1079 6.32768L69.5 30.9355L44.8921 6.32768C37.0816 -1.48281 24.4184 -1.4828 16.6079 6.32768L6.14213 16.7934C-1.66835 24.6039 -1.66835 37.2672 6.14214 45.0777L30.75 69.6855L6.14213 94.2934C-1.66835 102.104 -1.66835 114.767 6.14214 122.578L16.6079 133.043C24.4184 140.854 37.0816 140.854 44.8921 133.043L69.5 108.436L94.1079 133.043C101.918 140.854 114.582 140.854 122.392 133.043L132.858 122.578C140.668 114.767 140.668 102.104 132.858 94.2934L108.25 69.6855L132.858 45.0777ZM108.25 69.6855L69.5 108.436L30.75 69.6855L69.5 30.9355L108.25 69.6855Z" fill="#FFE343"/>
</svg>