<svg xmlns="http://www.w3.org/2000/svg" width="237" height="163" viewBox="0 0 237 163" fill="none">
<path d="M200.696 109.221C174.725 119.667 149.031 108.963 124.033 96.0077C114.874 122.843 103.755 148.213 77.8703 158.624C48.8091 170.314 15.7099 156.307 4.08414 127.404C-7.54162 98.5004 6.64078 65.4764 35.702 53.7872C61.6817 43.3375 88.0867 54.1866 112.208 66.6087C121.008 40.9675 132.557 14.8295 158.528 4.38334C187.591 -7.3066 220.688 6.70046 232.314 35.604C243.94 64.5075 229.747 97.5354 200.696 109.221ZM130.589 76.2982C153.276 88.1782 174.4 97.652 193.029 90.1587C211.603 82.6878 220.697 61.658 213.298 43.2633C205.904 24.8787 184.777 15.9938 166.203 23.4646C147.294 31.0595 138.589 52.431 130.589 76.2982ZM43.3733 72.8592C24.8011 80.3295 15.7082 101.368 23.1033 119.754C30.5021 138.149 51.6268 147.023 70.199 139.552C88.9236 132.021 97.5967 110.405 105.647 86.309C83.3385 74.654 62.2686 65.2591 43.3733 72.8592Z" fill="#E3EDFB"/>
</svg>