<svg xmlns="http://www.w3.org/2000/svg" width="147" height="149" viewBox="0 0 147 149" fill="none">
<circle cx="73.6707" cy="72.8982" r="56.6068" transform="rotate(20.2723 73.6707 72.8982)" fill="#EFB603"/>
<path d="M41.9097 55.2803C41.9097 55.2803 36.6949 83.5265 65.7764 94.2681C95.8784 105.387 109.256 80.1557 109.256 80.1557" stroke="#F6F7F8" stroke-width="9.66457" stroke-linecap="square" stroke-linejoin="round"/>
<path d="M60.97 53.4891C65.6193 55.2064 70.7805 52.8295 72.4978 48.1802C74.2151 43.5308 71.8382 38.3697 67.1889 36.6524C62.5395 34.9351 57.3784 37.312 55.6611 41.9613C53.9438 46.6106 56.3207 51.7718 60.97 53.4891Z" fill="white"/>
<path d="M94.6399 65.9266C99.2893 67.6439 104.45 65.267 106.168 60.6177C107.885 55.9683 105.508 50.8072 100.859 49.0899C96.2095 47.3726 91.0483 49.7495 89.331 54.3988C87.6137 59.0481 89.9906 64.2093 94.6399 65.9266Z" fill="white"/>
</svg>